<svg width="300" height="300" viewBox="0 0 300 300" fill="none" xmlns="http://www.w3.org/2000/svg">
<path d="M262.5 87.5V212.5C262.5 225.761 257.232 238.479 247.855 247.855C238.479 257.232 225.761 262.5 212.5 262.5H87.5C74.2392 262.5 61.5215 257.232 52.1447 247.855C42.7678 238.479 37.5 225.761 37.5 212.5V87.5C37.5 74.2392 42.7678 61.5215 52.1447 52.1447C61.5215 42.7678 74.2392 37.5 87.5 37.5H212.5C225.761 37.5 238.479 42.7678 247.855 52.1447C257.232 61.5215 262.5 74.2392 262.5 87.5Z" stroke="black" stroke-width="3.5" stroke-linecap="round" stroke-linejoin="round"/>
<path d="M175 162.5V150C175 143.37 177.634 137.011 182.322 132.322C187.011 127.634 193.37 125 200 125C206.63 125 212.989 127.634 217.678 132.322C222.366 137.011 225 143.37 225 150V162.5H175ZM175 162.5V175C175 181.63 177.634 187.989 182.322 192.678C187.011 197.366 193.37 200 200 200H218.75M75 200L89.0625 162.5M89.0625 162.5L112.5 100L135.938 162.5M89.0625 162.5H135.938M150 200L135.938 162.5" stroke="black" stroke-width="3.5" stroke-linecap="round" stroke-linejoin="round"/>
</svg>
