<svg width="116" height="117" viewBox="0 0 116 117" fill="none" xmlns="http://www.w3.org/2000/svg">
<path d="M12.0833 58.8411C12.0833 37.1974 12.0833 26.3708 18.8065 19.6476C25.5297 12.9244 36.3515 12.9244 58 12.9244C79.6437 12.9244 90.4703 12.9244 97.1935 19.6476C103.917 26.3708 103.917 37.1926 103.917 58.8411C103.917 80.4848 103.917 91.3114 97.1935 98.0346C90.4703 104.758 79.6485 104.758 58 104.758C36.3563 104.758 25.5297 104.758 18.8065 98.0346C12.0833 91.3114 12.0833 80.4896 12.0833 58.8411Z" stroke="black" stroke-width="1.5" stroke-linecap="round" stroke-linejoin="round"/>
<path d="M62.8333 78.1745L58.6477 64.6411M58.6477 64.6411L55.1483 53.3263C52.2967 44.114 50.8708 39.5078 48.3333 39.5078C45.7958 39.5078 44.37 44.114 41.5183 53.3263L38.019 64.6411M58.6477 64.6411H38.019M33.8333 78.1745L38.019 64.6411M77.3333 78.1745V54.0078M77.3333 41.9245V39.5078" stroke="black" stroke-width="1.5" stroke-linecap="round" stroke-linejoin="round"/>
</svg>
