<svg width="300" height="300" viewBox="0 0 300 300" fill="none" xmlns="http://www.w3.org/2000/svg">
<path d="M209.769 141.319L195.881 178.125L181.988 141.319M130.625 164.237C130.612 167.918 129.144 171.443 126.541 174.045C123.938 176.647 120.412 178.113 116.731 178.125C113.052 178.112 109.528 176.644 106.926 174.043C104.324 171.441 102.857 167.917 102.844 164.237V155.206C102.857 151.527 104.324 148.002 106.926 145.401C109.528 142.799 113.052 141.332 116.731 141.319C120.412 141.33 123.938 142.797 126.541 145.399C129.144 148 130.612 151.526 130.625 155.206M130.625 178.125V141.319M172.063 178.125V155.206C172.05 151.527 170.582 148.002 167.981 145.401C165.379 142.799 161.854 141.332 158.175 141.319C154.496 141.332 150.971 142.799 148.37 145.401C145.768 148.002 144.301 151.527 144.288 155.206M144.288 155.206V178.125M144.288 155.206V141.319M90.1002 159.375C90.1085 161.84 89.6291 164.281 88.6898 166.56C87.7504 168.839 86.3696 170.909 84.6269 172.652C82.8841 174.394 80.8139 175.775 78.5353 176.715C76.2567 177.654 73.8148 178.133 71.3502 178.125C68.8856 178.133 66.4437 177.654 64.1651 176.715C61.8865 175.775 59.8163 174.394 58.0735 172.652C56.3308 170.909 54.95 168.839 54.0106 166.56C53.0713 164.281 52.5919 161.84 52.6002 159.375V140.625C52.5919 138.16 53.0713 135.718 54.0106 133.44C54.95 131.161 56.3308 129.091 58.0735 127.348C59.8163 125.606 61.8865 124.225 64.1651 123.285C66.4437 122.346 68.8856 121.867 71.3502 121.875C73.7799 121.878 76.1842 122.37 78.4197 123.321C80.6552 124.273 82.676 125.666 84.3617 127.416C86.0474 129.165 87.3634 131.237 88.2312 133.506C89.099 135.776 89.5008 138.197 89.4127 140.625M247.4 164.237C247.387 167.919 245.918 171.445 243.314 174.047C240.709 176.649 237.182 178.115 233.5 178.125C229.821 178.112 226.296 176.644 223.695 174.043C221.093 171.441 219.626 167.917 219.613 164.237V155.206C219.626 151.527 221.093 148.002 223.695 145.401C226.296 142.799 229.821 141.332 233.5 141.319C237.18 141.33 240.707 142.797 243.31 145.399C245.913 148 247.381 151.526 247.394 155.206M247.4 178.125V141.319" stroke="black" stroke-width="3.5" stroke-linecap="round" stroke-linejoin="round"/>
<path d="M150 284.375C224.213 284.375 284.375 224.213 284.375 150C284.375 75.7867 224.213 15.625 150 15.625C75.7867 15.625 15.625 75.7867 15.625 150C15.625 224.213 75.7867 284.375 150 284.375Z" stroke="black" stroke-width="3.5" stroke-linecap="round" stroke-linejoin="round"/>
</svg>
