<svg width="116" height="118" viewBox="0 0 116 118" fill="none" xmlns="http://www.w3.org/2000/svg">
<path d="M41.2344 117.747C52.0187 117.747 60.7188 109.047 60.7188 98.2629V78.7786H41.2344C30.45 78.7786 21.75 87.4786 21.75 98.2629C21.75 109.047 30.45 117.747 41.2344 117.747Z" fill="#0ACF83"/>
<path d="M21.75 59.2942C21.75 48.5098 30.45 39.8098 41.2344 39.8098H60.7188V78.7786H41.2344C30.45 78.7786 21.75 70.0786 21.75 59.2942Z" fill="#A259FF"/>
<path d="M21.75 20.3254C21.75 9.54107 30.45 0.841064 41.2344 0.841064H60.7188V39.8098H41.2344C30.45 39.8098 21.75 31.1098 21.75 20.3254Z" fill="#F24E1E"/>
<path d="M60.7188 0.841064H80.2031C90.9875 0.841064 99.6875 9.54107 99.6875 20.3254C99.6875 31.1098 90.9875 39.8098 80.2031 39.8098H60.7188V0.841064Z" fill="#FF7262"/>
<path d="M99.6875 59.2942C99.6875 70.0786 90.9875 78.7786 80.2031 78.7786C69.4188 78.7786 60.7188 70.0786 60.7188 59.2942C60.7188 48.5098 69.4188 39.8098 80.2031 39.8098C90.9875 39.8098 99.6875 48.5098 99.6875 59.2942Z" fill="#1ABCFE"/>
</svg>
