<svg width="116" height="117" viewBox="0 0 116 117" fill="none" xmlns="http://www.w3.org/2000/svg">
<path d="M41.0833 39.5077V78.1744M101.5 34.6744V83.0077C101.5 88.1353 99.4631 93.0528 95.8374 96.6785C92.2117 100.304 87.2942 102.341 82.1667 102.341H33.8333C28.7058 102.341 23.7883 100.304 20.1626 96.6785C16.5369 93.0528 14.5 88.1353 14.5 83.0077V34.6744C14.5 29.5469 16.5369 24.6294 20.1626 21.0037C23.7883 17.378 28.7058 15.3411 33.8333 15.3411H82.1667C87.2942 15.3411 92.2117 17.378 95.8374 21.0037C99.4631 24.6294 101.5 29.5469 101.5 34.6744Z" stroke="black" stroke-width="1.5" stroke-linecap="round" stroke-linejoin="round"/>
<path d="M74.9167 58.8411V75.2744C74.9167 76.0435 74.6111 76.7812 74.0673 77.325C73.5234 77.8689 72.7858 78.1744 72.0167 78.1744H65.25C62.6862 78.1744 60.2275 77.1559 58.4146 75.3431C56.6018 73.5302 55.5833 71.0715 55.5833 68.5077C55.5833 65.944 56.6018 63.4852 58.4146 61.6724C60.2275 59.8595 62.6862 58.8411 65.25 58.8411H74.9167ZM74.9167 58.8411V44.3411" stroke="black" stroke-width="1.5" stroke-linecap="round" stroke-linejoin="round"/>
</svg>
