<svg width="241" height="201" viewBox="0 0 241 201" fill="none" xmlns="http://www.w3.org/2000/svg">
<path d="M240.486 98.234C240.811 118.906 224.252 135.994 203.58 136.318L144.037 137.253C157.06 151.338 156.866 174.869 143.408 188.782C136.487 195.921 127.014 200.02 117.071 200.176C107.129 200.332 97.5315 196.533 90.3897 189.614L-0.00906412 102.01L87.5952 11.6109C94.5163 4.47116 103.99 0.37263 113.932 0.216541C123.875 0.0604516 133.472 3.85959 140.614 10.7785C154.514 24.237 155.446 47.7877 142.86 62.2621L202.402 61.3273C223.075 61.0028 240.162 77.5616 240.486 98.234ZM83.3769 113.202L203.187 111.321C206.403 111.127 209.42 109.699 211.61 107.336C213.799 104.973 214.993 101.856 214.943 98.6351C214.892 95.4137 213.601 92.3361 211.338 90.0429C209.075 87.7496 206.015 86.4177 202.795 86.3242L82.9845 88.2052L123.496 46.4016C125.733 43.9866 126.954 40.8015 126.902 37.5095C126.85 34.2176 125.531 31.0723 123.218 28.7288C120.838 26.4225 117.639 25.1561 114.324 25.2081C111.01 25.2602 107.853 26.6263 105.545 29.0062L35.3366 101.455L107.785 171.664C110.166 173.97 113.365 175.236 116.679 175.184C119.993 175.132 123.151 173.766 125.458 171.386C127.696 168.971 128.916 165.786 128.864 162.494C128.812 159.202 127.493 156.057 125.18 153.713L83.3769 113.202Z" fill="#7ADAEB"/>
</svg>
