<svg width="116" height="117" viewBox="0 0 116 117" fill="none" xmlns="http://www.w3.org/2000/svg">
<path d="M45.5844 35.2317H38.8782V53.9911H45.5844C50.1157 53.9911 53.8313 50.2754 53.8313 45.7442V43.5692C53.8313 38.9473 50.1157 35.2317 45.5844 35.2317Z" fill="black"/>
<path d="M0 0.341064V116.341H116V0.341064H0ZM46.4 61.5129H38.8781V80.8161H30.1781V27.8004H46.9437C55.4625 27.7098 62.4406 34.5067 62.5312 43.0254V45.1098C62.5312 54.0817 55.2812 61.4223 46.4 61.5129ZM88.1781 48.6442C88.1781 48.6442 81.8344 48.6442 79.025 49.8223V80.8161H69.8719V44.6567C69.8719 44.6567 79.1156 40.0348 88.1781 41.2129V48.6442Z" fill="black"/>
</svg>
