<svg width="116" height="117" viewBox="0 0 116 117" fill="none" xmlns="http://www.w3.org/2000/svg">
<path d="M12.0834 58.8411C12.0834 37.1974 12.0834 26.3708 18.8065 19.6476C25.5297 12.9244 36.3515 12.9244 58 12.9244C79.6437 12.9244 90.4704 12.9244 97.1935 19.6476C103.917 26.3708 103.917 37.1926 103.917 58.8411C103.917 80.4848 103.917 91.3114 97.1935 98.0346C90.4704 104.758 79.6485 104.758 58 104.758C36.3564 104.758 25.5297 104.758 18.8065 98.0346C12.0834 91.3114 12.0834 80.4896 12.0834 58.8411Z" stroke="black" stroke-width="1.5" stroke-linecap="round" stroke-linejoin="round"/>
<path d="M31.4167 78.1745V58.8411M31.4167 58.8411V44.9453C31.4167 44.3846 31.4167 44.1043 31.4409 43.8675C31.5507 42.7549 32.0427 41.7148 32.8332 40.9243C33.6237 40.1338 34.6639 39.6417 35.7764 39.532C36.0132 39.5078 36.2936 39.5078 36.8542 39.5078H43.5001C46.0638 39.5078 48.5226 40.5263 50.3354 42.3391C52.1483 44.152 53.1667 46.6107 53.1667 49.1745C53.1667 51.7382 52.1483 54.197 50.3354 56.0098C48.5226 57.8227 46.0638 58.8411 43.5001 58.8411H31.4167ZM84.4191 55.0856C83.5781 51.7216 79.6437 49.1745 74.9167 49.1745C69.5759 49.1745 65.2501 52.4225 65.2501 56.4245C65.2501 60.4265 69.5759 63.6745 74.9167 63.6745C80.2576 63.6745 84.5834 66.9225 84.5834 70.9245C84.5834 74.9265 80.2576 78.1745 74.9167 78.1745C70.1704 78.1745 66.2264 75.6128 65.4047 72.2295" stroke="black" stroke-width="1.5" stroke-linecap="round" stroke-linejoin="round"/>
</svg>
