<svg width="28" height="28" viewBox="0 0 28 28" fill="none" xmlns="http://www.w3.org/2000/svg">
<path d="M14 10.962L11.1218 8.7815C10.9336 8.6415 10.7415 8.63645 10.5455 8.76633C10.3495 8.89622 10.2849 9.0755 10.3518 9.30417L11.4427 12.9092L8.64734 14.8832C8.442 15.0348 8.37667 15.2231 8.45133 15.4478C8.52678 15.6734 8.68467 15.7862 8.925 15.7862H12.3573L13.5357 19.5732C13.6166 19.8003 13.7709 19.9138 13.9988 19.9138C14.2267 19.9138 14.3819 19.8003 14.4643 19.5732L15.6427 15.7862H19.075C19.3161 15.7862 19.474 15.6734 19.5487 15.4478C19.6233 15.2231 19.558 15.0348 19.3527 14.8832L16.5573 12.9092L17.6482 9.30417C17.7151 9.07706 17.6505 8.89817 17.4545 8.7675C17.2585 8.63683 17.0664 8.6415 16.8782 8.7815L14 10.962ZM13.9965 3.5C15.4486 3.5 16.8136 3.77533 18.0915 4.326C19.3694 4.87745 20.4812 5.62567 21.427 6.57067C22.3728 7.51567 23.1214 8.62633 23.6728 9.90267C24.2243 11.179 24.5 12.5436 24.5 13.9965C24.5 15.4494 24.2243 16.8144 23.6728 18.0915C23.1222 19.3694 22.3751 20.4812 21.4317 21.427C20.4882 22.3728 19.3772 23.1214 18.0985 23.6728C16.8198 24.2243 15.4548 24.5 14.0035 24.5C12.5522 24.5 11.1872 24.2243 9.9085 23.6728C8.63061 23.1222 7.51878 22.3747 6.573 21.4305C5.62722 20.4863 4.87861 19.3752 4.32717 18.0973C3.77572 16.8194 3.5 15.4548 3.5 14.0035C3.5 12.5522 3.77533 11.1872 4.326 9.9085C4.87667 8.62983 5.62489 7.518 6.57067 6.573C7.51645 5.628 8.62711 4.87939 9.90267 4.32717C11.1782 3.77494 12.5428 3.49922 13.9965 3.5ZM14 4.66667C11.4139 4.66667 9.21161 5.5755 7.39317 7.39317C5.57472 9.21083 4.66589 11.4131 4.66667 14C4.66744 16.5869 5.57628 18.7892 7.39317 20.6068C9.21006 22.4245 11.4123 23.3333 14 23.3333C16.5877 23.3333 18.7899 22.4241 20.6068 20.6057C22.4237 18.7872 23.3326 16.5853 23.3333 14C23.3341 11.4147 22.4249 9.21239 20.6057 7.39317C18.7864 5.57394 16.5846 4.66511 14 4.66667Z" fill="black"/>
</svg>
