<svg width="116" height="117" viewBox="0 0 116 117" fill="none" xmlns="http://www.w3.org/2000/svg">
<mask id="mask0_3_283" style="mask-type:alpha" maskUnits="userSpaceOnUse" x="-1" y="0" width="117" height="117">
<path fill-rule="evenodd" clip-rule="evenodd" d="M82.2576 115.549C83.1807 115.909 84.1679 116.075 85.1579 116.037C86.1479 115.999 87.1195 115.757 88.0123 115.328L111.895 103.836C113.125 103.244 114.162 102.316 114.889 101.161C115.615 100.005 116 98.6676 116 97.3026V19.3805C116 18.0153 115.615 16.6778 114.889 15.5219C114.163 14.3659 113.125 13.4386 111.895 12.8464L88.0123 1.35607C86.6628 0.706749 85.1448 0.492961 83.6684 0.744296C82.1921 0.995631 80.8304 1.69966 79.7718 2.75895L34.0514 44.47L14.1375 29.3529C13.239 28.6711 12.1303 28.3253 11.0036 28.3753C9.87691 28.4252 8.80321 28.8679 7.96865 29.6265L1.5814 35.4365C1.08364 35.8892 0.685859 36.4409 0.413495 37.0561C0.141131 37.6714 0.000185135 38.3367 -0.000326665 39.0096C-0.000838465 39.6824 0.139095 40.3479 0.410523 40.9636C0.68195 41.5793 1.0789 42.1315 1.57597 42.585L18.8464 58.3411L1.57687 74.098C1.08007 74.5516 0.683365 75.1038 0.412106 75.7194C0.140847 76.335 0.00100436 77.0004 0.00151611 77.673C0.00202786 78.3457 0.142883 79.0109 0.415078 79.6261C0.687273 80.2412 1.08482 80.7928 1.58231 81.2456L7.96956 87.0556C8.80401 87.8144 9.87766 88.2572 11.0044 88.3074C12.1311 88.3575 13.2398 88.0118 14.1384 87.3302L34.0523 72.214L79.7727 113.924C80.4803 114.631 81.3257 115.185 82.2576 115.549ZM87.0172 32.0082L52.3269 58.3411L87.0181 84.6749L87.0172 32.0082Z" fill="white"/>
</mask>
<g mask="url(#mask0_3_283)">
<path d="M111.896 12.8654L87.9941 1.35603C86.6441 0.705874 85.1254 0.491634 83.6483 0.742987C82.1712 0.994341 80.8088 1.69884 79.7499 2.7589L1.50611 74.098C1.00894 74.5513 0.611897 75.1035 0.340398 75.7191C0.068899 76.3347 -0.0710747 77.0002 -0.0705629 77.673C-0.070051 78.3458 0.070935 79.0111 0.343371 79.6263C0.615806 80.2415 1.01369 80.793 1.51155 81.2456L7.90242 87.0556C8.73712 87.8152 9.81148 88.2587 10.939 88.3088C12.0665 88.359 13.176 88.0127 14.0749 87.3302L108.299 15.8497C111.46 13.4517 116 15.7065 116 19.6741V19.3967C116 18.032 115.615 16.6949 114.889 15.5394C114.163 14.3838 113.125 13.4575 111.896 12.8654Z" fill="#0065A9"/>
<g filter="url(#filter0_d_3_283)">
<path d="M111.896 103.817L87.9941 115.325C86.6444 115.975 85.1258 116.19 83.6487 115.939C82.1716 115.688 80.8091 114.984 79.75 113.924L1.50618 42.584C1.00901 42.1307 0.611966 41.5785 0.340467 40.9629C0.0689676 40.3473 -0.071006 39.6818 -0.0704942 39.009C-0.0699824 38.3362 0.0710037 37.6709 0.343439 37.0557C0.615875 36.4405 1.01376 35.889 1.51162 35.4364L7.90249 29.6264C8.73719 28.8668 9.81155 28.4233 10.9391 28.3732C12.0666 28.323 13.1761 28.6693 14.075 29.3518L108.299 100.831C111.46 103.23 116 100.975 116 97.0079V97.2852C116 98.65 115.615 99.9871 114.889 101.143C114.163 102.298 113.125 103.225 111.896 103.817Z" fill="#007ACC"/>
</g>
<g filter="url(#filter1_d_3_283)">
<path d="M87.9951 115.328C86.6446 115.977 85.126 116.19 83.649 115.939C82.172 115.687 80.8096 114.983 79.75 113.924C82.4252 116.599 87 114.704 87 110.921V5.76045C87 1.97685 82.4252 0.081885 79.75 2.75804C80.8096 1.69881 82.172 0.994813 83.649 0.743345C85.126 0.491877 86.6446 0.705348 87.9951 1.35426L111.892 12.8473C113.123 13.4391 114.161 14.3663 114.888 15.5223C115.614 16.6782 116 18.0159 116 19.3814V97.3026C116 98.668 115.614 100.006 114.888 101.162C114.161 102.318 113.123 103.245 111.892 103.837L87.9951 115.328Z" fill="#1F9CF0"/>
</g>
<path opacity="0.25" fill-rule="evenodd" clip-rule="evenodd" d="M82.1878 115.549C83.1108 115.909 84.0978 116.075 85.0877 116.036C86.0775 115.998 87.049 115.757 87.9416 115.328L111.824 103.836C113.054 103.243 114.092 102.316 114.818 101.16C115.544 100.004 115.93 98.6667 115.929 97.3015V19.3804C115.93 18.0152 115.544 16.6777 114.818 15.5218C114.092 14.3658 113.054 13.4384 111.824 12.8463L87.9416 1.35595C86.5921 0.706627 85.0741 0.492839 83.5978 0.744174C82.1214 0.995509 80.7597 1.69954 79.7011 2.75882L33.9807 44.4699L14.0668 29.3536C13.1683 28.6719 12.0597 28.326 10.9329 28.376C9.80622 28.426 8.73252 28.8687 7.89796 29.6273L1.51071 35.4373C1.01308 35.8901 0.615404 36.4417 0.34312 37.057C0.070836 37.6722 -0.0700664 38.3375 -0.0705781 39.0103C-0.0710899 39.6831 0.0688002 40.3487 0.340148 40.9643C0.611495 41.58 1.00833 42.1322 1.50527 42.5858L18.7757 58.3409L1.50618 74.097C1.00911 74.5505 0.612166 75.1027 0.340738 75.7184C0.0693107 76.3341 -0.070623 76.9996 -0.0701112 77.6725C-0.0695994 78.3453 0.0713466 79.0106 0.34371 79.6259C0.616074 80.2411 1.01386 80.7928 1.51162 81.2455L7.89887 87.0555C8.73331 87.8142 9.80696 88.2571 10.9337 88.3072C12.0604 88.3574 13.1692 88.0117 14.0677 87.3301L33.9826 72.2129L79.7029 113.924C80.4102 114.631 81.2563 115.184 82.1878 115.549ZM86.9474 32.0071L52.2562 58.3409L86.9474 84.6739V32.0071Z" fill="url(#paint0_linear_3_283)"/>
</g>
<defs>
<filter id="filter0_d_3_283" x="-1.11225" y="27.3267" width="118.154" height="89.7561" filterUnits="userSpaceOnUse" color-interpolation-filters="sRGB">
<feFlood flood-opacity="0" result="BackgroundImageFix"/>
<feColorMatrix in="SourceAlpha" type="matrix" values="0 0 0 0 0 0 0 0 0 0 0 0 0 0 0 0 0 0 127 0" result="hardAlpha"/>
<feOffset/>
<feGaussianBlur stdDeviation="0.520875"/>
<feColorMatrix type="matrix" values="0 0 0 0 0 0 0 0 0 0 0 0 0 0 0 0 0 0 0.25 0"/>
<feBlend mode="overlay" in2="BackgroundImageFix" result="effect1_dropShadow_3_283"/>
<feBlend mode="normal" in="SourceGraphic" in2="effect1_dropShadow_3_283" result="shape"/>
</filter>
<filter id="filter1_d_3_283" x="78.7083" y="-0.401003" width="38.3335" height="117.484" filterUnits="userSpaceOnUse" color-interpolation-filters="sRGB">
<feFlood flood-opacity="0" result="BackgroundImageFix"/>
<feColorMatrix in="SourceAlpha" type="matrix" values="0 0 0 0 0 0 0 0 0 0 0 0 0 0 0 0 0 0 127 0" result="hardAlpha"/>
<feOffset/>
<feGaussianBlur stdDeviation="0.520875"/>
<feColorMatrix type="matrix" values="0 0 0 0 0 0 0 0 0 0 0 0 0 0 0 0 0 0 0.25 0"/>
<feBlend mode="overlay" in2="BackgroundImageFix" result="effect1_dropShadow_3_283"/>
<feBlend mode="normal" in="SourceGraphic" in2="effect1_dropShadow_3_283" result="shape"/>
</filter>
<linearGradient id="paint0_linear_3_283" x1="57.9293" y1="0.640012" x2="57.9293" y2="116.042" gradientUnits="userSpaceOnUse">
<stop stop-color="white"/>
<stop offset="1" stop-color="white" stop-opacity="0"/>
</linearGradient>
</defs>
</svg>
